<svg height="512pt" viewBox="0 0 512 512" width="512pt" xmlns="http://www.w3.org/2000/svg"><path d="m504.5 256c0 137.242188-111.257812 248.5-248.5 248.5s-248.5-111.257812-248.5-248.5 111.257812-248.5 248.5-248.5 248.5 111.257812 248.5 248.5zm0 0" fill="#fcf2d0"/><path d="m256 504.5c58.632812 0 112.511719-20.320312 155.011719-54.28125-241.546875 10.847656-358.816407-287.738281-217.960938-434.664062-106.761719 27.871093-185.550781 124.953124-185.550781 240.445312 0 137.242188 111.257812 248.5 248.5 248.5zm0 0" fill="#f6e3a3"/><path d="m279.820312 503.359375c116.074219-11.042969 208.863282-101.917969 222.84375-217.113281-27.726562-83.644532-86.613281-120.597656-131.613281-136.75 27.390625 50.667968 45.925781 257.324218-91.230469 353.863281zm0 0" fill="#e26e7e"/><path d="m300.636719 11.503906c56.257812 49.257813 69.015625 112.359375 70.414062 137.992188 12.152344-10.558594 45.097657-34.128906 75.605469-52.863282-36.515625-43.636718-87.722656-74.554687-146.019531-85.128906zm0 0" fill="#89d47f"/><path d="m42.753906 128.367188c-22.378906 37.308593-35.253906 80.964843-35.253906 127.632812 0 53.328125 16.804688 102.730469 45.402344 143.210938 100.214844-101.984376 278.839844-226.457032 318.148437-249.714844-50.03125-48.253906-211.898437-97.636719-328.296875-21.128906zm0 0" fill="#a3defe"/><path d="m162.90625 301.011719c-32.871094-65.921875-40.550781-143.363281-16.546875-209.898438-35.796875 4.59375-71.4375 16.109375-103.605469 37.253907-22.378906 37.308593-35.253906 80.964843-35.253906 127.632812 0 53.328125 16.804688 102.730469 45.402344 143.210938 31.246094-31.796876 70.113281-65.78125 110.003906-98.199219zm0 0" fill="#7acefa"/><path d="m400.757812 119.785156c-18.117187-18.117187-46.105468-19.5-62.511718-3.09375-16.410156 16.410156-15.023438 44.398438 3.089844 62.515625 18.117187 18.113281 46.105468 19.5 62.511718 3.089844 16.410156-16.410156 15.027344-44.394531-3.089844-62.511719zm0 0" fill="#f6e3a3"/><path d="m279.820312 503.359375c49.363282-4.695313 94.507813-23.839844 131.179688-53.140625-25.640625 1.148438-49.871094-1.195312-72.554688-6.46875-15.277343 22.300781-34.542968 42.65625-58.625 59.609375zm0 0" fill="#d9495d"/><path d="m204.335938 352.421875c-9.078126 9.074219-25.675782 7.191406-37.074219-4.203125-11.398438-11.398438-13.28125-28-4.203125-37.074219 9.078125-9.078125 25.675781-7.195312 37.074218 4.203125 11.394532 11.398438 13.277344 27.996094 4.203126 37.074219zm0 0" fill="#eda1ab"/><path d="m274.925781 423.011719c-9.078125 9.074219-7.195312 25.671875 4.203125 37.070312 11.394532 11.398438 27.992188 13.28125 37.070313 4.203125 9.078125-9.074218 7.195312-25.675781-4.203125-37.074218-11.398438-11.394532-27.996094-13.277344-37.070313-4.199219zm0 0" fill="#eda1ab"/><path d="m268.894531 391.726562c10.285157-10.285156 3.800781-18.699218-5.386719-27.886718-9.191406-9.191406-17.609374-15.675782-27.890624-5.390625-10.28125 10.28125-11.171876 26.066406-1.980469 35.257812 9.191406 9.191407 24.976562 8.304688 35.257812-1.980469zm0 0" fill="#4e5660"/><path d="m437.019531 74.980469c-48.351562-48.351563-112.640625-74.980469-181.019531-74.980469-50.929688 0-100.128906 14.917969-142.273438 43.144531-3.441406 2.304688-4.363281 6.964844-2.058593 10.40625 2.304687 3.441407 6.960937 4.363281 10.402343 2.058594 39.671876-26.566406 85.984376-40.609375 133.929688-40.609375 13.949219 0 27.71875 1.183594 41.195312 3.488281 30.304688 27.066407 46.585938 57.847657 55.238282 81.300781-7.34375 2.195313-13.996094 6.109376-19.488282 11.601563-.820312.820313-1.589843 1.675781-2.339843 2.546875-38.882813-18.871094-87.019531-30.652344-133.195313-32.472656-47.4375-1.863282-91.75 6.582031-130.023437 24.570312 8.417969-10.597656 17.753906-20.550781 27.976562-29.695312 3.085938-2.761719 3.351563-7.503906.585938-10.589844-2.761719-3.085938-7.5-3.351562-10.589844-.589844-19.144531 17.132813-35.394531 36.890625-48.425781 58.476563-.460938.566406-.832032 1.191406-1.105469 1.851562-23.1875 39.144531-35.828125 84.175781-35.828125 130.511719 0 68.378906 26.628906 132.667969 74.980469 181.019531 48.351562 48.351563 112.640625 74.980469 181.019531 74.980469 51.488281 0 101.136719-15.222656 143.574219-44.023438 3.429687-2.324218 4.320312-6.988281 1.996093-10.414062-2.328124-3.429688-6.992187-4.324219-10.417968-1.996094-25.859375 17.546875-54.5625 29.730469-84.742188 36.148438 17.453125-15.699219 32.644532-33.984375 45.324219-54.640625 15.589844-25.394531 27.457031-54.402344 35.273437-86.214844 16.421876-66.832031 10.632813-125.335937 6.105469-152.832031 5.980469-2.308594 11.425781-5.808594 16.042969-10.429688 2.332031-2.332031 4.355469-4.863281 6.082031-7.542968 37.40625 25.085937 64.21875 61.042968 79.78125 107.015624-3.023437 23.589844-9.5 46.457032-19.386719 68.28125-13.699218 30.234376-33.171874 56.914063-57.875 79.296876-3.070312 2.78125-3.304687 7.523437-.523437 10.59375 1.480469 1.636718 3.519531 2.464843 5.5625 2.464843 1.796875 0 3.597656-.640625 5.03125-1.941406 26.234375-23.769531 46.917969-52.105469 61.46875-84.222656 15.066406-33.246094 22.703125-68.757813 22.703125-105.542969 0-68.378906-26.628906-132.667969-74.980469-181.019531zm-422.019531 181.019531c0-43.425781 11.792969-85.632812 33.433594-122.367188 41.144531-26.53125 92.394531-39.386718 148.382812-37.179687 43.675782 1.726563 89.117188 12.722656 125.953125 30.355469-2.585937 6.429687-3.777343 13.5-3.410156 20.871094.386719 7.878906 2.53125 15.554687 6.195313 22.582031-66.851563 45.71875-191.574219 137.652343-271.585938 217.246093-25.355469-38.78125-38.96875-84.09375-38.96875-131.507812zm357.441406 91.28125c-7.445312 30.304688-18.710937 57.875-33.488281 81.945312-16.386719 26.695313-37.203125 49.167969-61.867187 66.855469-6.984376.605469-14.015626.917969-21.085938.917969-64.375 0-124.894531-25.066406-170.414062-70.585938-8.328126-8.328124-15.960938-17.164062-22.890626-26.425781 79.191407-79.292969 204.582032-171.707031 271.46875-217.441406.605469.664063 1.230469 1.320313 1.875 1.960937 10.078126 10.082032 23.15625 16.007813 36.828126 16.683594.875.042969 1.75.0625 2.617187.0625.988281 0 1.964844-.035156 2.941406-.09375 4.328125 26.632813 9.675781 82.398438-5.984375 146.121094zm32.902344-180.550781c-.003906.003906-.003906.007812-.003906.007812-1.535156 3.773438-3.792969 7.257813-6.789063 10.257813-4.214843 4.214844-9.480469 7.0625-15.335937 8.390625-.015625.003906-.027344.003906-.039063.003906-.085937.015625-.164062.042969-.246093.058594-2.976563.652343-6.101563.917969-9.320313.757812-9.945313-.492187-19.519531-4.859375-26.964844-12.304687-1.757812-1.757813-3.335937-3.636719-4.742187-5.609375-.011719-.015625-.019532-.035157-.03125-.050781-.0625-.097657-.136719-.183594-.207032-.277344-4.398437-6.304688-6.953124-13.5625-7.324218-21.027344-.476563-9.664062 2.796875-18.519531 9.214844-24.941406 6.007812-6.007813 14.152343-9.257813 23.09375-9.257813.613281 0 1.230468.015625 1.847656.046875 9.945312.492188 19.523437 4.859375 26.964844 12.304688 11.78125 11.78125 15.238281 28.46875 9.882812 41.640625zm.515625-52.441407c-10.050781-9.960937-23.042969-15.816406-36.625-16.484374-.53125-.027344-1.058594-.03125-1.589844-.039063-7.269531-20.691406-20.171875-47.351563-42.851562-72.84375 37.996093 11.257813 72.8125 31.859375 101.617187 60.664063 3.039063 3.039062 5.980469 6.148437 8.832032 9.316406-11.21875 7.078125-21.421876 13.910156-29.382813 19.386718zm15.425781 51.777344c3.257813-12.996094 1.136719-27.4375-6.199218-39.917968 8.144531-5.589844 18.558593-12.542969 29.941406-19.675782 32.925781 41.457032 51.128906 92.230469 51.925781 145.839844-17.558594-35.964844-42.90625-64.875-75.667969-86.246094zm-200.570312 135.597656c-2.929688-2.929687-7.679688-2.929687-10.609375 0l-8.855469 8.859376c-2.929688 2.929687-2.929688 7.675781 0 10.605468 1.464844 1.464844 3.382812 2.195313 5.304688 2.195313 1.917968 0 3.835937-.730469 5.300781-2.195313l8.859375-8.859375c2.929687-2.925781 2.929687-7.675781 0-10.605469zm9.597656 51.480469c-6.277344 6.28125-9.996094 14.421875-10.476562 22.921875-.492188 8.820313 2.523437 16.96875 8.5 22.945313 5.703124 5.707031 13.296874 8.523437 21.109374 8.523437 8.753907 0 17.785157-3.535156 24.753907-10.503906 16.554687-16.554688 1.175781-31.929688-5.390625-38.496094s-21.945313-21.941406-38.496094-5.390625zm33.28125 33.277344c-7.339844 7.34375-18.398438 8.230469-24.652344 1.980469-2.914062-2.914063-4.378906-6.996094-4.128906-11.496094.269531-4.8125 2.441406-9.484375 6.109375-13.15625 1.769531-1.769531 3.203125-3.03125 5.125-3.03125 2.546875 0 5.953125 2.21875 12.15625 8.421875 10.878906 10.878906 9.515625 13.160156 5.390625 17.28125zm51.480469 20.207031-8.859375 8.859375c-2.929688 2.929688-2.929688 7.675781 0 10.605469 1.464844 1.464844 3.386718 2.195312 5.304687 2.195312s3.839844-.730468 5.304688-2.195312l8.855469-8.855469c2.929687-2.929687 2.929687-7.679687 0-10.609375-2.929688-2.925781-7.675782-2.925781-10.605469 0zm0 0"/></svg>