<svg height="512pt" viewBox="0 0 512 512.00067" width="512pt" xmlns="http://www.w3.org/2000/svg"><path d="m225.648438 504.5c-12.144532 0-23.917969-2.515625-34.992188-7.472656-70.910156-31.746094-119.335938-78.683594-148.039062-143.496094-28.34375-64-33.644532-137.179688-35.089844-200.320312-1.015625-44.441407 26.566406-84.050782 68.640625-98.558594 42.664062-14.710938 91.558593-21.863282 149.480469-21.863282 57.921874 0 106.816406 7.152344 149.480468 21.863282 42.074219 14.507812 69.660156 54.117187 68.640625 98.554687-1.445312 63.144531-6.742187 136.324219-35.089843 200.324219-28.703126 64.8125-77.128907 111.75-148.039063 143.496094-11.074219 4.957031-22.847656 7.472656-34.992187 7.472656zm0 0" fill="#6e7ca8"/><path d="m190.65625 497.027344c11.074219 4.957031 22.847656 7.472656 34.992188 7.472656 12.144531 0 23.921874-2.515625 34.992187-7.472656 16.167969-7.238282 31.152344-15.273438 45.015625-24.125-112.117188-84.300782-157.167969-339.636719-122.941406-438.675782-39.714844 2.75-74.855469 9.5-106.546875 20.425782-42.070313 14.507812-69.65625 54.117187-68.640625 98.558594 1.445312 63.140624 6.746094 136.320312 35.089844 200.320312 28.703124 64.8125 77.128906 111.75 148.039062 143.496094zm0 0" fill="#54669e"/><path d="m243.015625 457.660156c129.660156-58.046875 154.40625-164.398437 157.632813-305.4375.585937-25.527344-15.441407-48.472656-39.582032-56.796875-39.28125-13.542969-83.832031-19.503906-135.417968-19.503906-51.585938 0-96.136719 5.960937-135.417969 19.507813-24.140625 8.324218-40.167969 31.265624-39.582031 56.792968 3.226562 141.039063 27.976562 247.390625 157.632812 305.4375 11.039062 4.945313 23.699219 4.945313 34.734375 0zm0 0" fill="#8eafe2"/><path d="m156.132812 80.226562c-23.554687 3.171876-45.453124 8.148438-65.902343 15.203126-24.140625 8.324218-40.167969 31.265624-39.582031 56.792968 3.226562 141.039063 27.976562 247.390625 157.632812 305.4375 11.039062 4.945313 23.695312 4.945313 34.734375 0 2.328125-1.039062 4.609375-2.101562 6.867187-3.175781-76.964843-95.4375-110.285156-275.703125-93.75-374.257813zm0 0" fill="#6a96d7"/><path d="m225.648438 346.65625c-48.960938 0-101.101563-6.632812-146.441407-17.300781 22.382813 54.613281 61.457031 98.03125 129.074219 128.304687 11.039062 4.941406 23.695312 4.941406 34.734375 0 67.617187-30.273437 106.695313-73.691406 129.074219-128.304687-45.339844 10.667969-97.476563 17.300781-146.441406 17.300781zm0 0" fill="#a3defe"/><path d="m79.207031 329.355469c22.382813 54.613281 61.457031 98.03125 129.074219 128.304687 11.039062 4.941406 23.695312 4.941406 34.734375 0 2.328125-1.039062 4.613281-2.101562 6.871094-3.171875-23.988281-29.746093-43.738281-67.722656-59.058594-108.90625-38.207031-2.269531-76.90625-8.058593-111.621094-16.226562zm0 0" fill="#7acefa"/><path d="m161.09375 232.011719c0-16.601563-16.898438-30.058594-37.746094-30.058594s-37.746094 13.457031-37.746094 30.058594c0 16.601562 16.898438 30.058593 37.746094 30.058593s37.746094-13.457031 37.746094-30.058593zm0 0" fill="#fff"/><path d="m365.695312 232.011719c0-16.601563-16.898437-30.058594-37.746093-30.058594-20.847657 0-37.746094 13.457031-37.746094 30.058594 0 16.601562 16.898437 30.058593 37.746094 30.058593 20.847656 0 37.746093-13.457031 37.746093-30.058593zm0 0" fill="#fff"/><path d="m348.84375 137.734375c-8.117188 3.257813-16.175781-4.804687-12.917969-12.921875 13.351563-33.257812 13.351563-70.382812 0-103.640625-3.257812-8.117187 4.800781-16.175781 12.917969-12.917969 33.257812 13.351563 70.386719 13.351563 103.644531 0 8.113281-3.257812 16.175781 4.800782 12.917969 12.917969-13.355469 33.257813-13.355469 70.386719 0 103.644531 3.257812 8.113282-4.804688 16.175782-12.917969 12.917969-33.257812-13.355469-70.386719-13.355469-103.644531 0zm0 0" fill="#a3defe"/><path d="m103.667969 485.410156c-2.773438 6.492188-11.980469 6.492188-14.753907 0-11.363281-26.617187-32.5625-47.816406-59.179687-59.179687-6.492187-2.773438-6.492187-11.980469 0-14.753907 26.617187-11.363281 47.816406-32.5625 59.179687-59.179687 2.773438-6.492187 11.980469-6.492187 14.753907 0 11.363281 26.617187 32.5625 47.816406 59.175781 59.179687 6.496094 2.773438 6.496094 11.980469 0 14.753907-26.613281 11.363281-47.8125 32.5625-59.175781 59.179687zm0 0" fill="#f7ef87"/><path d="m450.066406 299.785156c-2.359375 5.515625-10.179687 5.515625-12.535156 0-9.65625-22.613281-27.671875-40.628906-50.285156-50.285156-5.519532-2.355469-5.519532-10.179688 0-12.535156 22.613281-9.65625 40.628906-27.667969 50.285156-50.28125 2.355469-5.519532 10.175781-5.519532 12.535156 0 9.65625 22.613281 27.667969 40.625 50.28125 50.28125 5.519532 2.355468 5.519532 10.179687 0 12.535156-22.613281 9.65625-40.625 27.667969-50.28125 50.285156zm0 0" fill="#89d47f"/><path d="m284.847656 346.65625c0 32.691406-26.503906 59.195312-59.199218 59.195312-32.695313 0-59.199219-26.503906-59.199219-59.195312 0-32.695312 26.503906-59.199219 59.199219-59.199219 32.695312 0 59.199218 26.503907 59.199218 59.199219zm0 0" fill="#fff"/><path d="m178.988281 310.25c-7.847656 10.042969-12.539062 22.671875-12.539062 36.40625 0 29.976562 22.289062 54.734375 51.195312 58.644531-15.617187-28.921875-28.535156-61.429687-38.65625-95.050781zm0 0" fill="#f9eab9"/><path d="m305.949219 173.835938c-14.039063 0-25.464844 11.421874-25.464844 25.464843 0 4.144531 3.355469 7.5 7.5 7.5s7.5-3.355469 7.5-7.5c0-5.769531 4.695313-10.464843 10.464844-10.464843 5.773437 0 10.46875 4.695312 10.46875 10.464843 0 4.144531 3.359375 7.5 7.5 7.5 4.144531 0 7.5-3.355469 7.5-7.5 0-14.042969-11.425781-25.464843-25.46875-25.464843zm-80.300781 62.648437c9.472656 0 18.480468-4.105469 24.710937-11.257813 2.722656-3.121093 2.398437-7.859374-.726563-10.578124-3.121093-2.722657-7.855468-2.398438-10.582031.726562-3.382812 3.882812-8.265625 6.109375-13.402343 6.109375-5.132813 0-10.019532-2.226563-13.402344-6.109375-2.722656-3.125-7.460938-3.449219-10.582032-.726562-3.121093 2.71875-3.449218 7.457031-.726562 10.578124 6.234375 7.152344 15.238281 11.257813 24.710938 11.257813zm277.644531-6.417969c-20.9375-8.9375-37.390625-25.394531-46.332031-46.332031-1.308594-3.066406-3.605469-5.496094-6.421876-7 .296876-7.347656.539063-15.042969.730469-23.355469.0625-2.714844.015625-5.449218-.125-8.183594 1.703125.523438 3.433594.789063 5.144531.789063 4.496094 0 8.855469-1.773437 12.226563-5.144531 5.019531-5.019532 6.496094-12.230469 3.851563-18.820313-12.695313-31.617187-12.695313-66.4375 0-98.054687 2.644531-6.589844 1.167968-13.800782-3.851563-18.820313-5.023437-5.023437-12.234375-6.496093-18.824219-3.851562-31.613281 12.695312-66.4375 12.695312-98.050781 0-6.589844-2.644531-13.804687-1.171875-18.824219 3.851562-5.019531 5.019531-6.496094 12.230469-3.851562 18.824219 1.507812 3.753906 2.832031 7.554688 3.984375 11.390625-32.261719-6.761719-67.5-10.070313-107.300781-10.070313-56.402344 0-104.328126 6.691407-146.511719 20.457032-3.9375 1.285156-6.089844 5.519531-4.804688 9.457031 1.035157 3.167969 3.972657 5.175781 7.128907 5.175781.769531 0 1.554687-.121094 2.328124-.371094 40.65625-13.269531 87.058594-19.71875 141.859376-19.71875 41.605468 0 77.992187 3.691407 111.058593 11.25 1.617188 9.703126 2.125 19.523438 1.535157 29.304688-32.878907-8.34375-69.8125-12.421875-112.59375-12.421875-53.902344 0-98.996094 6.515625-137.863282 19.917969-27.355468 9.433594-45.296875 35.175781-44.636718 64.054687 1.480468 64.613281 7.203124 138.566407 37.929687 199.015625-4.464844 9.878906-10.339844 18.890625-17.421875 26.785156-5.191406-8.859374-9.949219-18.144531-14.183594-27.703124-27.808594-62.789063-33.019531-135.050782-34.449218-197.457032-.710938-31.101562 13.871093-60.476562 39.003906-78.574218 3.359375-2.417969 4.125-7.105469 1.703125-10.46875-2.417969-3.359376-7.105469-4.121094-10.46875-1.703126-29.148438 20.988282-46.058594 55.042969-45.2343752 91.09375 1.4648442 63.882813 6.8554682 137.980469 35.7304682 203.183594 4.960938 11.195313 10.601563 22.035156 16.804688 32.3125-7.703125 6.378906-16.355469 11.679688-25.773438 15.703125-5.726562 2.441407-9.425781 8.046875-9.425781 14.273438 0 6.226562 3.699219 11.828125 9.425781 14.273437 24.957032 10.65625 44.570313 30.269532 55.226563 55.226563 2.445313 5.726562 8.046875 9.425781 14.273437 9.425781 6.226563 0 11.828126-3.699219 14.273438-9.425781 3.355469-7.855469 7.601562-15.183594 12.617188-21.867188 18.996093 14.171875 40.621093 26.734375 64.410156 37.386719 12.042968 5.390625 24.847656 8.125 38.058594 8.125 13.207031 0 26.011718-2.734375 38.058593-8.125 21.585938-9.664062 41.421875-20.894531 58.957031-33.375 3.375-2.402344 4.164063-7.085938 1.761719-10.460938-2.402343-3.375-7.085937-4.160156-10.460937-1.761718-16.730469 11.910156-35.703125 22.644531-56.386719 31.90625-10.105469 4.523437-20.847656 6.816406-31.929687 6.816406-11.082032 0-21.824219-2.292969-31.929688-6.816406-22.40625-10.03125-42.769531-21.800782-60.660156-35.039063 6.980468-6.9375 14.949218-12.886719 23.71875-17.65625 14.515625 10.023438 30.769531 19.109375 48.4375 27.019531 6.492187 2.90625 13.460937 4.359376 20.433594 4.359376 6.96875 0 13.941406-1.453126 20.433593-4.359376 86.761719-38.847656 134.054688-100.953124 152.257813-200.542968 9.445312 6.242187 17.554687 14.214844 23.941406 23.546875-5.207031 22.894531-12.082031 44.070312-20.457031 62.980469-14.808594 33.433593-34.523438 61.347656-60.269531 85.328124-3.03125 2.824219-3.199219 7.570313-.375 10.601563 1.476562 1.585937 3.480468 2.386719 5.488281 2.386719 1.828125 0 3.664062-.664063 5.109375-2.011719 26.878906-25.039063 48.332031-55.394531 63.761718-90.230469 6.808594-15.375 12.664063-32.148437 17.480469-50.042968 2.671875 3.058593 6.566407 4.898437 10.777344 4.898437 5.742187 0 10.910156-3.410156 13.164063-8.691406 8.941406-20.9375 25.394531-37.394531 46.332031-46.332031 5.28125-2.253907 8.691406-7.421876 8.691406-13.167969.003906-5.742188-3.410156-10.910157-8.691406-13.164063zm-160.40625-211.6875c-.496094-1.234375.015625-2.109375.535156-2.628906s1.394531-1.03125 2.628906-.535156c35.21875 14.140625 74.007813 14.140625 109.230469 0 1.230469-.496094 2.105469.015625 2.625.535156s1.03125 1.394531.539062 2.628906c-14.144531 35.21875-14.144531 74.011719 0 109.230469.492188 1.230469-.019531 2.109375-.539062 2.625-.519531.519531-1.394531 1.03125-2.625.539063-17.609375-7.070313-36.113281-10.609376-54.617188-10.609376-18.5 0-37.003906 3.539063-54.613281 10.609376-1.234375.492187-2.109375-.023438-2.628906-.539063-.519531-.519531-1.03125-1.394531-.535156-2.625 14.140625-35.222656 14.140625-74.011719 0-109.230469zm63.410156 116.917969c9.875.429687 19.71875 1.980469 29.359375 4.65625.503906 4.363281.714844 8.746094.617188 13.082031-.203126 8.828125-.460938 16.945313-.789063 24.675782-2.09375 1.496093-3.792969 3.550781-4.851563 6.027343-5.800781 13.582031-14.777343 25.261719-26.074218 34.242188 1.847656-19.554688 3.03125-41.167969 3.589844-65.585938.132812-5.8125-.496094-11.53125-1.851563-17.097656zm-246.394531 284.035156c-28.53125 12.179688-50.953125 34.601563-63.132813 63.128907-.066406.15625-.136719.316406-.480469.316406s-.414062-.160156-.476562-.316406c-12.183594-28.527344-34.605469-50.949219-63.132812-63.128907-.15625-.066406-.316407-.136719-.316407-.480469s.160157-.414062.316407-.480468c28.527343-12.179688 50.949218-34.601563 63.132812-63.128906.007812-.027344.019531-.050782.035156-.074219.011719-.023438.023438-.042969.039063-.066407.0625-.097656.167969-.175781.402343-.175781.347657 0 .414063.160157.480469.316407 12.183594 28.53125 34.601563 50.949218 63.132813 63.128906.152344.066406.3125.136718.3125.480468 0 .347657-.160156.414063-.3125.480469zm224.398437-162.933593c.046875.019531.089844.042968.136719.058593-7.808594 45.714844-21.511719 82.503907-41.824219 112.320313-23.800781 34.929687-57.378906 61.765625-102.660156 82.039062-9.089844 4.070313-19.519531 4.070313-28.609375 0-14.425781-6.460937-27.835938-13.726562-40.042969-21.652344 2.472657-2.785156 3.914063-6.425781 3.914063-10.308593 0-6.226563-3.699219-11.832031-9.425782-14.277344-24.957031-10.65625-44.570312-30.269531-55.226562-55.226563-2.445312-5.726562-8.046875-9.425781-14.273438-9.425781-1.347656 0-2.664062.183594-3.925781.515625-21.945312-45.214844-32.246093-102.292968-34.21875-188.390625-.507812-22.332031 13.367188-42.234375 34.53125-49.535156 37.265625-12.847656 80.761719-19.097656 132.972657-19.097656 42.351562 0 78.6875 4.074219 110.8125 12.4375-1.578126 8.867187-4.070313 17.632812-7.496094 26.160156-2.644532 6.589844-1.167969 13.804687 3.851562 18.824219 5.023438 5.019531 12.234375 6.496094 18.824219 3.851562 12.675781-5.089844 25.867187-8.136718 39.160156-9.144531 1.683594 5.328125 2.480469 10.855469 2.351563 16.5-.664063 29.019531-2.214844 53.972656-4.730469 76.128906-1.351563.660157-2.722656 1.292969-4.117187 1.886719-5.28125 2.257812-8.691407 7.421875-8.691407 13.167969-.003906 5.742187 3.40625 10.910156 8.6875 13.167969zm59.496094 38.996093c-10.382813-23.34375-28.816406-41.777343-52.160156-52.160156 2.375-1.058594 4.679687-2.21875 6.949219-3.433594.242187-.117187.484374-.238281.714843-.378906 19.707031-10.789063 35.277344-27.628906 44.496094-48.351563 10.386719 23.34375 28.820313 41.777344 52.164063 52.164063-23.34375 10.382813-41.777344 28.816406-52.164063 52.160156zm-218.148437-15.4375c-36.777344 0-66.695313 29.921875-66.695313 66.699219s29.917969 66.699219 66.695313 66.699219c36.777343 0 66.699218-29.921875 66.699218-66.699219s-29.921875-66.699219-66.699218-66.699219zm0 118.394531c-28.507813 0-51.699219-23.191406-51.699219-51.695312 0-28.507812 23.191406-51.699219 51.699219-51.699219 28.507812 0 51.699218 23.191407 51.699218 51.699219 0 28.503906-23.191406 51.695312-51.699218 51.695312zm-54.835938-199.050781c0-14.042969-11.425781-25.464843-25.464844-25.464843-14.042968 0-25.46875 11.421874-25.46875 25.464843 0 4.140625 3.359375 7.5 7.5 7.5 4.144532 0 7.5-3.359375 7.5-7.5 0-5.769531 4.695313-10.464843 10.46875-10.464843 5.769532 0 10.464844 4.691406 10.464844 10.464843 0 4.140625 3.359375 7.5 7.5 7.5 4.144531 0 7.5-3.359375 7.5-7.5zm75.601562 125.988281-29.882812 29.882813-13.175781-13.175781c-2.929688-2.929688-7.675781-2.929688-10.605469 0-2.929688 2.929687-2.929688 7.675781 0 10.605468l18.480469 18.480469c1.464843 1.464844 3.382812 2.195313 5.300781 2.195313 1.921875 0 3.839844-.730469 5.304688-2.195313l35.1875-35.183593c2.925781-2.929688 2.925781-7.679688 0-10.609376-2.929688-2.929687-7.679688-2.929687-10.609376 0zm0 0"/></svg>