<svg height="511pt" viewBox="0 -29 511.99942 511" width="511pt" xmlns="http://www.w3.org/2000/svg"><path d="m37.84375 134.304688-1.773438-1.773438c-9.984374-9.984375-7.601562-26.753906 4.769532-33.558594 10.464844-5.757812 19.078125-14.375 24.839844-24.839844 6.804687-12.367187 23.574218-14.753906 33.558593-4.769531l1.773438 1.773438c7.261719 7.261719 8.851562 18.453125 3.898437 27.449219-9.183594 16.695312-22.925781 30.433593-39.621094 39.621093-8.996093 4.949219-20.183593 3.359375-27.445312-3.902343zm0 0" fill="#ebecec"/><path d="m291.675781 69.5 2.359375-.855469c13.265625-4.832031 27.457032 4.417969 28.398438 18.503907.796875 11.917968 4.960937 23.367187 12.015625 33.007812 8.332031 11.398438 3.40625 27.605469-9.859375 32.433594l-2.359375.855468c-9.652344 3.515626-20.460938.226563-26.523438-8.0625-11.25-15.382812-17.894531-33.640624-19.164062-52.652343-.6875-10.25 5.484375-19.714844 15.132812-23.230469zm0 0" fill="#ebecec"/><path d="m445.292969 15.992188-1.773438-1.773438c-9.980469-9.984375-26.753906-7.601562-33.558593 4.769531-5.757813 10.464844-14.371094 19.078125-24.839844 24.839844-12.367188 6.804687-14.753906 23.574219-4.769532 33.558594l1.773438 1.773437c7.261719 7.261719 18.453125 8.851563 27.449219 3.902344 16.695312-9.1875 30.433593-22.929688 39.621093-39.621094 4.949219-9 3.359376-20.1875-3.902343-27.449218zm0 0" fill="#dadbdb"/><path d="m153.175781 15.992188 1.773438-1.773438c9.984375-9.984375 26.753906-7.601562 33.558593 4.769531 5.761719 10.464844 14.375 19.078125 24.839844 24.839844 12.371094 6.804687 14.753906 23.574219 4.769532 33.558594l-1.773438 1.773437c-7.261719 7.261719-18.449219 8.851563-27.449219 3.902344-16.691406-9.1875-30.433593-22.929688-39.621093-39.621094-4.949219-9-3.359376-20.1875 3.902343-27.449218zm0 0" fill="#dadbdb"/><path d="m437.800781 446.015625h-204.535156v-233.898437h231.367187v207.0625c0 14.820312-12.011718 26.835937-26.832031 26.835937zm0 0" fill="#caa58b"/><path d="m74.199219 446.015625h159.066406v-233.898437h-185.902344v207.0625c0 14.820312 12.015625 26.835937 26.835938 26.835937zm0 0" fill="#bd977a"/><g fill="#ad8b73"><path d="m134.070312 212.117188h-86.707031v207.0625c0 14.820312 12.015625 26.835937 26.835938 26.835937h94.363281c-32.992188-59.886719-33.164062-169.195313-34.492188-233.898437zm0 0"/><path d="m489.605469 111.890625h-189.28125c-11.199219 0-21.417969 6.390625-26.316407 16.464844l-40.742187 83.761719h231.371094l38.347656-78.84375c4.804687-9.878907-2.390625-21.382813-13.378906-21.382813zm0 0"/><path d="m22.394531 111.890625h143.8125c11.203125 0 21.417969 6.390625 26.316407 16.464844l40.742187 83.761719h-185.902344l-38.347656-78.84375c-4.804687-9.878907 2.390625-21.382813 13.378906-21.382813zm0 0"/></g><path d="m325.945312 372.347656h-92.679687v73.667969h92.679687c7.828126 0 14.171876-6.34375 14.171876-14.171875v-45.324219c0-7.828125-6.34375-14.171875-14.171876-14.171875zm0 0" fill="#f8eed1"/><path d="m192.699219 372.347656h40.566406v73.667969h-40.566406c-7.828125 0-14.171875-6.34375-14.171875-14.171875v-45.324219c0-7.828125 6.34375-14.171875 14.171875-14.171875zm0 0" fill="#e8d9b3"/><path d="m308.570312 405h-43.757812c-4.140625 0-7.5-3.355469-7.5-7.5 0-4.140625 3.359375-7.5 7.5-7.5h43.757812c4.140626 0 7.5 3.359375 7.5 7.5 0 4.144531-3.359374 7.5-7.5 7.5zm0 0" fill="#495059"/><path d="m297.09375 428.363281h-20.804688c-4.140624 0-7.5-3.359375-7.5-7.5 0-4.144531 3.359376-7.5 7.5-7.5h20.804688c4.144531 0 7.5 3.355469 7.5 7.5 0 4.140625-3.355469 7.5-7.5 7.5zm0 0" fill="#495059"/><path d="m305.8125 313.859375c0-11.09375-11.292969-20.085937-25.226562-20.085937-13.929688 0-25.222657 8.992187-25.222657 20.085937 0 11.097656 11.292969 20.089844 25.222657 20.089844 13.933593 0 25.226562-8.992188 25.226562-20.089844zm0 0" fill="#fff"/><path d="m442.539062 313.859375c0-11.09375-11.292968-20.085937-25.226562-20.085937-13.929688 0-25.222656 8.992187-25.222656 20.085937 0 11.097656 11.292968 20.089844 25.222656 20.089844 13.933594 0 25.226562-8.992188 25.226562-20.089844zm0 0" fill="#fff"/><path d="m369.289062 298.425781c0-12.566406-9.105468-22.757812-20.339843-22.757812-11.230469 0-20.335938 10.191406-20.335938 22.757812 0 12.570313 9.105469 22.757813 20.335938 22.757813 11.234375 0 20.339843-10.1875 20.339843-22.757813zm0 0" fill="#495059"/><path d="m163.066406 212.117188h-45.5v104.886718c0 4.09375 4.523438 6.566406 7.964844 4.355469l8.421875-5.402344c3.878906-2.488281 8.847656-2.488281 12.722656 0l8.421875 5.402344c3.445313 2.210937 7.96875-.261719 7.96875-4.355469zm0 0" fill="#f6e06a"/><path d="m125.53125 321.359375 8.425781-5.402344c1.242188-.800781 2.609375-1.3125 4.007813-1.597656-2.953125-37.367187-3.3125-74.039063-3.894532-102.242187h-16.503906v104.890624c0 4.089844 4.523438 6.5625 7.964844 4.351563zm0 0" fill="#f2d068"/><path d="m117.566406 212.117188-48.75-100.226563h45.5l48.75 100.226563zm0 0" fill="#f2d068"/><path d="m508.574219 114.898438c-4.117188-6.582032-11.207031-10.507813-18.96875-10.507813h-15.304688c-4.144531 0-7.5 3.355469-7.5 7.5 0 4.140625 3.355469 7.5 7.5 7.5h15.304688c3.6875 0 5.601562 2.421875 6.253906 3.464844.648437 1.042969 1.992187 3.824219.378906 7.140625l-36.292969 74.621094h-214.691406l35.5-72.980469c3.617188-7.441407 11.300782-12.246094 19.570313-12.246094h138.964843c4.140626 0 7.5-3.359375 7.5-7.5 0-4.144531-3.359374-7.5-7.5-7.5h-105.164062c-2.371094-5.648437-3.796875-11.589844-4.207031-17.742187-.609375-9.089844-5.332031-17.15625-12.964844-22.128907-7.632813-4.976562-16.921875-6.039062-25.484375-2.921875l-2.355469.855469c-12.710937 4.625-20.957031 17.28125-20.054687 30.777344.519531 7.820312 1.921875 15.582031 4.140625 23.152343-2.359375 2.566407-4.375 5.480469-5.933594 8.691407l-34 69.894531-33.996094-69.894531c-6.109375-12.566407-19.089843-20.683594-33.0625-20.683594h-55.988281c.425781-.730469.859375-1.453125 1.265625-2.191406 6.519531-11.847657 4.394531-26.804688-5.171875-36.367188l-1.769531-1.773437c-6.445313-6.441406-15.308594-9.402344-24.332031-8.117188-9.019532 1.28125-16.710938 6.59375-21.105469 14.574219-5.078125 9.234375-12.648438 16.804687-21.882813 21.886719-5.085937 2.796875-9.101562 6.953125-11.679687 11.988281h-3.148438c-7.761719 0-14.851562 3.925781-18.96875 10.507813-4.117187 6.582031-4.550781 14.675781-1.152343 21.65625l37.589843 77.289062v154.730469c0 4.140625 3.359375 7.5 7.5 7.5 4.144531 0 7.5-3.359375 7.5-7.5v-148.957031h55.203125v97.386718c0 4.636719 2.527344 8.898438 6.59375 11.121094 1.902344 1.039062 3.992188 1.554688 6.078125 1.554688 2.386719 0 4.765625-.671876 6.84375-2.007813l8.425781-5.402344c1.402344-.898437 3.214844-.902343 4.621094 0l8.421875 5.402344c3.902344 2.503906 8.851563 2.679687 12.921875.453125 4.066406-2.222656 6.59375-6.484375 6.59375-11.121094v-97.386718h55.203125v145.230468h-33.070312c-11.949219 0-21.671875 9.722656-21.671875 21.671875v45.324219c0 2.328125.375 4.570312 1.054687 6.671875h-97.882812c-10.660157 0-19.335938-8.671875-19.335938-19.335937v-15.171876c0-4.144531-3.355469-7.5-7.5-7.5-4.140625 0-7.5 3.355469-7.5 7.5v15.171876c0 18.933593 15.402344 34.335937 34.335938 34.335937h363.601562c18.929688 0 34.335938-15.402344 34.335938-34.335937v-205.335938l37.589843-77.289062c3.394532-6.980469 2.964844-15.074219-1.152343-21.65625zm-214.332031-38.347657 2.359374-.859375c4.082032-1.488281 8.515626-.980468 12.160157 1.394532s5.898437 6.222656 6.1875 10.5625c.386719 5.738281 1.46875 11.332031 3.199219 16.742187h-17.824219c-4.890625 0-9.648438 1.011719-14.046875 2.84375-1.160156-4.941406-1.914063-9.960937-2.253906-15.003906-.457032-6.875 3.746093-13.324219 10.21875-15.679688zm-221.992188 1.199219c2.09375-3.8125 5.765625-6.347656 10.070312-6.960938 4.308594-.609374 8.539063.804688 11.613282 3.875l1.773437 1.777344c4.871094 4.871094 5.953125 12.492188 2.632813 18.527344-1.769532 3.214844-3.769532 6.371094-5.964844 9.421875h-45.910156c10.816406-6.421875 19.703125-15.589844 25.785156-26.640625zm-20.195312 126.867188-36.292969-74.625c-1.613281-3.316407-.273438-6.097657.378906-7.136719.652344-1.042969 2.566406-3.464844 6.253906-3.464844h8.214844.027344.023437 33.464844l41.453125 85.226563zm70.203124 0-41.453124-85.226563h28.820312l41.453125 85.226563zm33.308594 108.132812-4.839844-3.105469c-6.324218-4.058593-14.496093-4.058593-20.820312 0l-4.839844 3.105469v-93.132812h30.5zm12.191406-108.132812-41.453124-85.226563h39.902343c8.273438 0 15.957031 4.804687 19.574219 12.242187l35.496094 72.984376zm58.007813 233.898437h-33.066406c-3.679688 0-6.671875-2.992187-6.671875-6.671875v-45.324219c0-3.679687 2.992187-6.671875 6.671875-6.671875h33.066406zm106.851563-6.671875c0 3.679688-2.992188 6.671875-6.671876 6.671875h-85.179687v-58.667969h85.179687c3.679688 0 6.671876 2.992188 6.671876 6.671875zm124.519531-12.664062c0 10.664062-8.675781 19.335937-19.335938 19.335937h-91.238281c.679688-2.101563 1.054688-4.34375 1.054688-6.671875v-45.324219c0-11.953125-9.722657-21.671875-21.671876-21.671875h-85.179687v-145.230468h216.367187v199.5625zm-271.855469-329.546876c4.59375 2.527344 9.648438 3.753907 14.679688 3.753907 7.953124 0 15.832031-3.066407 21.6875-8.921875l1.773437-1.773438c6.441406-6.445312 9.402344-15.3125 8.117187-24.332031-1.28125-9.019531-6.59375-16.710937-14.574218-21.105469-9.234375-5.082031-16.804688-12.648437-21.882813-21.882812-4.394531-7.980469-12.085937-13.292969-21.105469-14.578125-9.023437-1.28125-17.886718 1.679687-24.332031 8.121093l-1.773437 1.773438c-9.5625 9.5625-11.6875 24.519531-5.167969 36.367188 9.886719 17.96875 24.609375 32.691406 42.578125 42.578124zm-26.800781-68.339843 1.773437-1.773438c2.601563-2.601562 6.035156-4.015625 9.640625-4.015625.652344 0 1.3125.046875 1.972657.140625 4.304687.613281 7.976562 3.148438 10.070312 6.957031 6.453125 11.730469 16.066406 21.339844 27.796875 27.796876 3.808594 2.09375 6.34375 5.765624 6.957031 10.070312.609375 4.304688-.800781 8.539062-3.875 11.613281l-1.773437 1.773438c-4.875 4.871093-12.492188 5.957031-18.53125 2.632812-15.472657-8.511719-28.152344-21.191406-36.664063-36.664062-3.324218-6.039063-2.242187-13.65625 2.632813-18.53125zm218.339843 63.171875c5.859376 5.855468 13.738282 8.921875 21.6875 8.921875 5.03125 0 10.089844-1.230469 14.679688-3.753907 17.96875-9.890624 32.691406-24.609374 42.578125-42.578124 6.519531-11.847657 4.394531-26.804688-5.167969-36.367188l-1.773437-1.773438c-6.441407-6.441406-15.308594-9.40625-24.332031-8.121093-9.019532 1.28125-16.710938 6.59375-21.105469 14.578125-5.078125 9.234375-12.648438 16.800781-21.882813 21.882812-7.980468 4.394532-13.292968 12.085938-14.574218 21.105469-1.285157 9.019531 1.675781 17.886719 8.117187 24.328125zm4.957032-23.992188c.613281-4.308594 3.148437-7.980468 6.960937-10.074218 11.726563-6.453126 21.339844-16.066407 27.792969-27.796876 2.097656-3.808593 5.769531-6.34375 10.070312-6.957031.660157-.09375 1.320313-.140625 1.972657-.140625 3.605469 0 7.039062 1.414063 9.644531 4.019532l1.773438 1.773437c4.871093 4.871094 5.953124 12.492187 2.632812 18.527344-8.515625 15.472656-21.191406 28.152343-36.667969 36.667969-6.039062 3.320312-13.65625 2.238281-18.527343-2.632813l-1.773438-1.777344c-3.074219-3.074219-4.488281-7.304687-3.878906-11.609375zm-96.972656 237.167969c4.144531 0 7.5-3.355469 7.5-7.5v-10.824219c0-4.144531-3.355469-7.5-7.5-7.5-4.144532 0-7.5 3.355469-7.5 7.5v10.824219c0 4.144531 3.355468 7.5 7.5 7.5zm128.292968 0c4.144532 0 7.5-3.355469 7.5-7.5v-10.824219c0-4.144531-3.355468-7.5-7.5-7.5-4.140625 0-7.5 3.355469-7.5 7.5v10.824219c0 4.144531 3.359375 7.5 7.5 7.5zm-64.148437 31.042969c15.351562 0 27.839843-13.574219 27.839843-30.257813 0-16.683593-12.488281-30.257812-27.839843-30.257812-15.347657 0-27.835938 13.574219-27.835938 30.257812 0 16.683594 12.488281 30.257813 27.835938 30.257813zm0-45.515625c7.078125 0 12.839843 6.847656 12.839843 15.257812 0 8.414063-5.761718 15.257813-12.839843 15.257813s-12.835938-6.84375-12.835938-15.257813c0-8.410156 5.757813-15.257812 12.835938-15.257812zm0 0"/></svg>